<svg aria-hidden="true" style="position: absolute; width: 0; height: 0; overflow: hidden;" version="1.1" xmlns="http://www.w3.org/2000/svg" xmlns:xlink="http://www.w3.org/1999/xlink">
<defs>
<symbol id="icon-inst" viewBox="0 0 32 32">
<path d="M16.009 2.882c4.278 0 4.784 0.019 6.466 0.094 1.563 0.069 2.408 0.331 2.971 0.55 0.744 0.288 1.282 0.638 1.838 1.194 0.563 0.563 0.907 1.094 1.201 1.838 0.219 0.563 0.482 1.413 0.55 2.969 0.075 1.688 0.094 2.194 0.094 6.464s-0.019 4.782-0.094 6.464c-0.069 1.563-0.331 2.407-0.55 2.969-0.288 0.744-0.638 1.282-1.194 1.838-0.563 0.563-1.094 0.906-1.839 1.2-0.563 0.219-1.413 0.481-2.97 0.55-1.689 0.075-2.195 0.094-6.466 0.094s-4.784-0.019-6.466-0.094c-1.563-0.069-2.408-0.331-2.97-0.55-0.744-0.287-1.282-0.638-1.839-1.194-0.563-0.563-0.907-1.094-1.201-1.838-0.219-0.563-0.482-1.413-0.55-2.969-0.075-1.688-0.094-2.194-0.094-6.464s0.019-4.782 0.094-6.464c0.069-1.563 0.331-2.407 0.55-2.969 0.288-0.744 0.638-1.282 1.194-1.838 0.563-0.563 1.094-0.906 1.839-1.2 0.563-0.219 1.413-0.481 2.97-0.55 1.682-0.075 2.189-0.094 6.466-0.094zM16.009 0c-4.346 0-4.89 0.019-6.598 0.094-1.701 0.075-2.87 0.35-3.884 0.744-1.057 0.413-1.951 0.956-2.839 1.85-0.894 0.888-1.438 1.782-1.851 2.832-0.394 1.019-0.669 2.182-0.744 3.882-0.075 1.713-0.094 2.257-0.094 6.601s0.019 4.889 0.094 6.595c0.075 1.7 0.35 2.869 0.744 3.882 0.413 1.056 0.957 1.95 1.851 2.838 0.888 0.888 1.782 1.438 2.833 1.844 1.019 0.394 2.183 0.669 3.884 0.744 1.707 0.075 2.251 0.094 6.598 0.094s4.89-0.019 6.598-0.094c1.701-0.075 2.87-0.35 3.884-0.744 1.051-0.406 1.945-0.956 2.833-1.844s1.438-1.782 1.845-2.832c0.394-1.019 0.669-2.182 0.744-3.882 0.075-1.707 0.094-2.25 0.094-6.595s-0.019-4.888-0.094-6.595c-0.075-1.7-0.35-2.869-0.744-3.882-0.394-1.063-0.938-1.957-1.832-2.844-0.888-0.888-1.782-1.438-2.833-1.844-1.019-0.394-2.183-0.669-3.884-0.744-1.713-0.081-2.258-0.1-6.604-0.1v0z"></path>
<path d="M16.009 7.783c-4.54 0-8.224 3.682-8.224 8.22s3.683 8.22 8.224 8.22 8.224-3.682 8.224-8.22c0-4.538-3.683-8.22-8.224-8.22zM16.009 21.335c-2.945 0-5.334-2.388-5.334-5.332s2.389-5.332 5.334-5.332c2.945 0 5.334 2.388 5.334 5.332s-2.389 5.332-5.334 5.332z"></path>
<path d="M26.478 7.458c0 1.060-0.86 1.919-1.92 1.919s-1.92-0.859-1.92-1.919c0-1.060 0.86-1.919 1.92-1.919s1.92 0.859 1.92 1.919z"></path>
</symbol>
<symbol id="icon-facebook" viewBox="0 0 18 32">
<path d="M12.19 12.19h5.714v5.714h-5.714v13.333h-5.714v-13.333h-5.714v-5.714h5.714v-2.39c0-2.264 0.713-5.126 2.13-6.69 1.417-1.567 3.187-2.349 5.307-2.349h3.993v5.714h-4c-0.949 0-1.714 0.766-1.714 1.713v4.001h-0.001z"></path>
</symbol>
<symbol id="icon-logo" viewBox="0 0 37 32">
<path d="M3.411 1.304c-1.189 2.511-1.46 7.479-0.549 10.080 0.198 0.564 0.407 1.241 0.466 1.504 0.143 0.638 1.999 4.957 2.744 6.385 0.731 1.401 0.717 1.415-0.684 0.702-2.016-1.025-3.602-3.131-4.293-5.704-0.49-1.823-1.091-1.857-1.052-0.059 0.068 3.136 2.719 6.488 6.672 8.438 1.568 0.774 1.114 0.159 4.618 6.257 1.493 2.599 1.565 2.682 2.32 2.682 0.938 0 1.072-0.206 1.599-2.462 0.534-2.287 1.135-4.271 1.778-5.877l0.462-1.153-0.502-0.689c-0.276-0.379-0.563-0.689-0.637-0.69-0.248-0.003-1.372 2.539-2.077 4.696l-0.697 2.133-0.829-1.21c-0.768-1.122-3.174-5.566-3.768-6.961-2.129-5.001-1.258-11.050 1.848-12.843 1.095-0.632 0.894-1.41-0.259-1-2.359 0.838-4.496 4.412-4.725 7.902-0.052 0.789-0.647-0.603-1.245-2.914-0.614-2.371-0.667-6.961-0.1-8.671 0.509-1.535-0.403-1.992-1.088-0.546zM31.836 0.698c-0.064 0.155-0.016 0.822 0.106 1.484 0.647 3.511 0.469 6.685-0.533 9.51-0.698 1.967-0.97 2.386-0.974 1.497-0.015-2.862-2-6.336-4.262-7.457-1.681-0.833-1.838-0.256-0.296 1.086 4.287 3.732 3.378 11.266-2.354 19.53l-0.847 1.221-0.294-1.016c-0.79-2.724-1.061-3.424-2.087-5.38l-1.106-2.108 0.889-1.076c0.489-0.592 1.489-1.439 2.222-1.882s1.298-0.902 1.256-1.020c-0.265-0.744-2.254 0.065-4.113 1.673l-1.291 1.117-1.145-1.025c-1.228-1.1-3.214-2.161-3.835-2.048-0.662 0.12-0.581 0.545 0.173 0.903 3.496 1.659 5.986 6.068 7.754 13.73 0.446 1.935 0.6 2.154 1.513 2.154 0.751 0 0.835-0.090 2.009-2.154 0.724-1.272 2.609-4.446 3.298-5.553 0.263-0.422 0.942-0.893 2.057-1.425 3.27-1.56 5.833-4.702 6.35-7.785 0.365-2.177-0.477-2.503-1.071-0.414-0.742 2.61-2.55 4.955-4.575 5.933-1.002 0.484-1.014 0.39-0.175-1.34 3.802-7.834 4.555-13.302 2.417-17.554-0.366-0.728-0.908-1.028-1.084-0.599z"></path>
</symbol>
<symbol id="icon-pintrest" viewBox="0 0 25 32">
<path d="M12.812 1.127c-8.356 0-12.569 5.991-12.569 10.987 0 3.028 1.148 5.717 3.602 6.718 0.404 0.166 0.764 0.007 0.881-0.437 0.081-0.31 0.273-1.092 0.36-1.416 0.12-0.437 0.073-0.593-0.25-0.978-0.71-0.834-1.161-1.92-1.161-3.45 0-4.444 3.324-8.422 8.659-8.422 4.724 0 7.32 2.89 7.32 6.739 0 5.073-2.246 9.351-5.578 9.351-1.841 0-3.218-1.521-2.775-3.388 0.529-2.233 1.553-4.636 1.553-6.242 0-1.44-0.775-2.639-2.37-2.639-1.88 0-3.394 1.944-3.394 4.551 0 1.661 0.564 2.784 0.564 2.784s-1.927 8.156-2.264 9.584c-0.671 2.844-0.101 6.333-0.049 6.686 0.025 0.206 0.295 0.259 0.415 0.101 0.173-0.227 2.416-2.997 3.175-5.758 0.219-0.782 1.239-4.83 1.239-4.83 0.615 1.163 2.396 2.188 4.296 2.188 5.655 0 9.489-5.151 9.489-12.055-0.006-5.215-4.425-10.074-11.141-10.074h-0.001z"></path>
</symbol>
<symbol id="icon-serach" viewBox="0 0 32 32">
<path d="M11.584 19.584c4.417 0 8-3.584 8-8s-3.584-8-8-8c-4.416 0-8 3.584-8 8s3.584 8 8 8zM22.251 19.584l8.833 8.833-2.667 2.667-8.833-8.833v-1.417l-0.5-0.5c-2 1.751-4.667 2.751-7.5 2.751-6.417 0-11.584-5.084-11.584-11.5s5.167-11.584 11.584-11.584c6.417 0 11.5 5.167 11.5 11.584 0 2.833-1 5.5-2.751 7.5l0.5 0.5h1.417z"></path>
</symbol>
<symbol id="icon-telegram" viewBox="0 0 36 32">
<path d="M32.598 1.051l-31.432 12.772c-1.265 0.595-1.693 1.786-0.306 2.432l8.064 2.7 19.497-12.697c1.065-0.797 2.154-0.585 1.217 0.292l-16.745 15.976-0.526 6.761c0.487 1.044 1.379 1.049 1.948 0.53l4.633-4.619 7.934 6.261c1.843 1.15 2.846 0.408 3.242-1.699l5.204-25.967c0.54-2.594-0.381-3.736-2.73-2.743z"></path>
</symbol>
<symbol id="icon-cross" viewBox="0 0 32 32">
<path d="M18.855 16l12.936-12.936c0.278-0.279 0.278-0.731 0-1.009l-1.845-1.846c-0.134-0.134-0.316-0.209-0.505-0.209s-0.371 0.075-0.505 0.209l-12.936 12.936-12.936-12.936c-0.268-0.268-0.742-0.268-1.010 0l-1.845 1.846c-0.279 0.279-0.279 0.731 0 1.009l12.936 12.936-12.936 12.936c-0.279 0.279-0.279 0.73 0 1.009l1.845 1.846c0.134 0.134 0.316 0.209 0.505 0.209s0.371-0.076 0.505-0.209l12.936-12.936 12.936 12.936c0.134 0.134 0.316 0.209 0.505 0.209s0.371-0.076 0.505-0.209l1.845-1.846c0.278-0.279 0.278-0.73 0-1.009l-12.937-12.936z"></path>
</symbol>
</defs>
</svg>
