<svg width="137" height="23" viewBox="0 0 137 23" fill="none" xmlns="http://www.w3.org/2000/svg">
<path d="M7.54688 15.8281L7.98438 18.8281L8.625 16.125L13.125 0.25H15.6562L20.0469 16.125L20.6719 18.875L21.1562 15.8125L24.6875 0.25H27.7031L22.1875 23H19.4531L14.7656 6.42188L14.4062 4.6875L14.0469 6.42188L9.1875 23H6.45312L0.953125 0.25H3.95312L7.54688 15.8281ZM34.2656 23H31.2656V0.25H34.2656V23ZM42.7812 20.5469H53.5625V23H39.7656V0.25H42.7812V20.5469ZM56.9844 23V0.25H63.4062C65.3854 0.25 67.1354 0.6875 68.6562 1.5625C70.1771 2.4375 71.349 3.68229 72.1719 5.29688C73.0052 6.91146 73.4271 8.76562 73.4375 10.8594V12.3125C73.4375 14.4583 73.0208 16.3385 72.1875 17.9531C71.3646 19.5677 70.1823 20.8073 68.6406 21.6719C67.1094 22.5365 65.3229 22.9792 63.2812 23H56.9844ZM59.9844 2.71875V20.5469H63.1406C65.4531 20.5469 67.25 19.8281 68.5312 18.3906C69.8229 16.9531 70.4688 14.9062 70.4688 12.25V10.9219C70.4688 8.33854 69.8594 6.33333 68.6406 4.90625C67.4323 3.46875 65.7135 2.73958 63.4844 2.71875H59.9844ZM81 20.5469H91.7812V23H77.9844V0.25H81V20.5469ZM98.4219 23H95.4219V0.25H98.4219V23ZM116.469 12.9531H106.922V23H103.922V0.25H118.016V2.71875H106.922V10.5H116.469V12.9531ZM134.469 12.4844H124.609V20.5469H136.062V23H121.609V0.25H135.906V2.71875H124.609V10.0312H134.469V12.4844Z" fill="#F7F7F7"/>
</svg>
